<svg id="visual" viewBox="0 0 1980 1080" width="1980" height="1080" xmlns="http://www.w3.org/2000/svg" xmlns:xlink="http://www.w3.org/1999/xlink" version="1.1"><rect x="0" y="0" width="1980" height="1080" fill="#f2f2f2"></rect><path d="M0 956L17.3 947.3C34.7 938.7 69.3 921.3 104 931.7C138.7 942 173.3 980 208.2 926.5C243 873 278 728 312.8 723C347.7 718 382.3 853 417 856.2C451.7 859.3 486.3 730.7 521 674.7C555.7 618.7 590.3 635.3 625 662C659.7 688.7 694.3 725.3 729.2 712.5C764 699.7 799 637.3 833.8 688C868.7 738.7 903.3 902.3 938 901.5C972.7 900.7 1007.3 735.3 1042 698.2C1076.7 661 1111.3 752 1146.2 766.3C1181 780.7 1216 718.3 1250.8 705.7C1285.7 693 1320.3 730 1355 785.5C1389.7 841 1424.3 915 1459 894.7C1493.7 874.3 1528.3 759.7 1563 739.8C1597.7 720 1632.3 795 1667.2 786.2C1702 777.3 1737 684.7 1771.8 716.3C1806.7 748 1841.3 904 1876 950.8C1910.7 997.7 1945.3 935.3 1962.7 904.2L1980 873L1980 0L1962.7 0C1945.3 0 1910.7 0 1876 0C1841.3 0 1806.7 0 1771.8 0C1737 0 1702 0 1667.2 0C1632.3 0 1597.7 0 1563 0C1528.3 0 1493.7 0 1459 0C1424.3 0 1389.7 0 1355 0C1320.3 0 1285.7 0 1250.8 0C1216 0 1181 0 1146.2 0C1111.3 0 1076.7 0 1042 0C1007.3 0 972.7 0 938 0C903.3 0 868.7 0 833.8 0C799 0 764 0 729.2 0C694.3 0 659.7 0 625 0C590.3 0 555.7 0 521 0C486.3 0 451.7 0 417 0C382.3 0 347.7 0 312.8 0C278 0 243 0 208.2 0C173.3 0 138.7 0 104 0C69.3 0 34.7 0 17.3 0L0 0Z" fill="#f2f2f2"></path><path d="M0 994L17.3 950.2C34.7 906.3 69.3 818.7 104 782.2C138.7 745.7 173.3 760.3 208.2 762.7C243 765 278 755 312.8 768C347.7 781 382.3 817 417 854.3C451.7 891.7 486.3 930.3 521 953.2C555.7 976 590.3 983 625 960.2C659.7 937.3 694.3 884.7 729.2 854.5C764 824.3 799 816.7 833.8 822.3C868.7 828 903.3 847 938 820.2C972.7 793.3 1007.3 720.7 1042 666.2C1076.7 611.7 1111.3 575.3 1146.2 627.7C1181 680 1216 821 1250.8 831.8C1285.7 842.7 1320.3 723.3 1355 711C1389.7 698.7 1424.3 793.3 1459 827.3C1493.7 861.3 1528.3 834.7 1563 801.5C1597.7 768.3 1632.3 728.7 1667.2 701.7C1702 674.7 1737 660.3 1771.8 696.7C1806.7 733 1841.3 820 1876 817.3C1910.7 814.7 1945.3 722.3 1962.7 676.2L1980 630L1980 0L1962.7 0C1945.3 0 1910.7 0 1876 0C1841.3 0 1806.7 0 1771.8 0C1737 0 1702 0 1667.2 0C1632.3 0 1597.7 0 1563 0C1528.3 0 1493.7 0 1459 0C1424.3 0 1389.7 0 1355 0C1320.3 0 1285.7 0 1250.8 0C1216 0 1181 0 1146.2 0C1111.3 0 1076.7 0 1042 0C1007.3 0 972.7 0 938 0C903.3 0 868.7 0 833.8 0C799 0 764 0 729.2 0C694.3 0 659.7 0 625 0C590.3 0 555.7 0 521 0C486.3 0 451.7 0 417 0C382.3 0 347.7 0 312.8 0C278 0 243 0 208.2 0C173.3 0 138.7 0 104 0C69.3 0 34.7 0 17.3 0L0 0Z" fill="#e6e5ec"></path><path d="M0 781L17.3 772.2C34.7 763.3 69.3 745.7 104 738.5C138.7 731.3 173.3 734.7 208.2 761.2C243 787.7 278 837.3 312.8 794.2C347.7 751 382.3 615 417 542.7C451.7 470.3 486.3 461.7 521 473.5C555.7 485.3 590.3 517.7 625 550.8C659.7 584 694.3 618 729.2 606.8C764 595.7 799 539.3 833.8 553C868.7 566.7 903.3 650.3 938 656.8C972.7 663.3 1007.3 592.7 1042 594C1076.7 595.3 1111.3 668.7 1146.2 674.3C1181 680 1216 618 1250.8 630.3C1285.7 642.7 1320.3 729.3 1355 749.5C1389.7 769.7 1424.3 723.3 1459 730.2C1493.7 737 1528.3 797 1563 828C1597.7 859 1632.3 861 1667.2 796.7C1702 732.3 1737 601.7 1771.8 558.2C1806.7 514.7 1841.3 558.3 1876 571.7C1910.7 585 1945.3 568 1962.7 559.5L1980 551L1980 0L1962.7 0C1945.3 0 1910.7 0 1876 0C1841.3 0 1806.7 0 1771.8 0C1737 0 1702 0 1667.2 0C1632.3 0 1597.7 0 1563 0C1528.3 0 1493.7 0 1459 0C1424.3 0 1389.7 0 1355 0C1320.3 0 1285.7 0 1250.8 0C1216 0 1181 0 1146.2 0C1111.3 0 1076.7 0 1042 0C1007.3 0 972.7 0 938 0C903.3 0 868.7 0 833.8 0C799 0 764 0 729.2 0C694.3 0 659.7 0 625 0C590.3 0 555.7 0 521 0C486.3 0 451.7 0 417 0C382.3 0 347.7 0 312.8 0C278 0 243 0 208.2 0C173.3 0 138.7 0 104 0C69.3 0 34.7 0 17.3 0L0 0Z" fill="#d9d8e5"></path><path d="M0 428L17.3 446.5C34.7 465 69.3 502 104 536C138.7 570 173.3 601 208.2 613.3C243 625.7 278 619.3 312.8 602.2C347.7 585 382.3 557 417 579.2C451.7 601.3 486.3 673.7 521 683C555.7 692.3 590.3 638.7 625 581.2C659.7 523.7 694.3 462.3 729.2 480.2C764 498 799 595 833.8 594.7C868.7 594.3 903.3 496.7 938 501.3C972.7 506 1007.3 613 1042 630.8C1076.7 648.7 1111.3 577.3 1146.2 524.2C1181 471 1216 436 1250.8 489.5C1285.7 543 1320.3 685 1355 740.2C1389.7 795.3 1424.3 763.7 1459 744.8C1493.7 726 1528.3 720 1563 715.7C1597.7 711.3 1632.3 708.7 1667.2 684.5C1702 660.3 1737 614.7 1771.8 620.7C1806.7 626.7 1841.3 684.3 1876 724.3C1910.7 764.3 1945.3 786.7 1962.7 797.8L1980 809L1980 0L1962.7 0C1945.3 0 1910.7 0 1876 0C1841.3 0 1806.7 0 1771.8 0C1737 0 1702 0 1667.2 0C1632.3 0 1597.7 0 1563 0C1528.3 0 1493.7 0 1459 0C1424.3 0 1389.7 0 1355 0C1320.3 0 1285.7 0 1250.8 0C1216 0 1181 0 1146.2 0C1111.3 0 1076.7 0 1042 0C1007.3 0 972.7 0 938 0C903.3 0 868.7 0 833.8 0C799 0 764 0 729.2 0C694.3 0 659.7 0 625 0C590.3 0 555.7 0 521 0C486.3 0 451.7 0 417 0C382.3 0 347.7 0 312.8 0C278 0 243 0 208.2 0C173.3 0 138.7 0 104 0C69.3 0 34.7 0 17.3 0L0 0Z" fill="#cdcbdf"></path><path d="M0 651L17.3 601.3C34.7 551.7 69.3 452.3 104 432.3C138.7 412.3 173.3 471.7 208.2 508.2C243 544.7 278 558.3 312.8 567.5C347.7 576.7 382.3 581.3 417 602C451.7 622.7 486.3 659.3 521 659.7C555.7 660 590.3 624 625 566.7C659.7 509.3 694.3 430.7 729.2 412C764 393.3 799 434.7 833.8 473.5C868.7 512.3 903.3 548.7 938 582.8C972.7 617 1007.3 649 1042 621.7C1076.7 594.3 1111.3 507.7 1146.2 504.5C1181 501.3 1216 581.7 1250.8 586C1285.7 590.3 1320.3 518.7 1355 490.7C1389.7 462.7 1424.3 478.3 1459 493.2C1493.7 508 1528.3 522 1563 532.8C1597.7 543.7 1632.3 551.3 1667.2 560.3C1702 569.3 1737 579.7 1771.8 601.5C1806.7 623.3 1841.3 656.7 1876 672.7C1910.7 688.7 1945.3 687.3 1962.7 686.7L1980 686L1980 0L1962.7 0C1945.3 0 1910.7 0 1876 0C1841.3 0 1806.7 0 1771.8 0C1737 0 1702 0 1667.2 0C1632.3 0 1597.7 0 1563 0C1528.3 0 1493.7 0 1459 0C1424.3 0 1389.7 0 1355 0C1320.3 0 1285.7 0 1250.8 0C1216 0 1181 0 1146.2 0C1111.3 0 1076.7 0 1042 0C1007.3 0 972.7 0 938 0C903.3 0 868.7 0 833.8 0C799 0 764 0 729.2 0C694.3 0 659.7 0 625 0C590.3 0 555.7 0 521 0C486.3 0 451.7 0 417 0C382.3 0 347.7 0 312.8 0C278 0 243 0 208.2 0C173.3 0 138.7 0 104 0C69.3 0 34.7 0 17.3 0L0 0Z" fill="#c0bed9"></path><path d="M0 418L17.3 399C34.7 380 69.3 342 104 366.3C138.7 390.7 173.3 477.3 208.2 515.8C243 554.3 278 544.7 312.8 513C347.7 481.3 382.3 427.7 417 397C451.7 366.3 486.3 358.7 521 366.8C555.7 375 590.3 399 625 397.8C659.7 396.7 694.3 370.3 729.2 366.8C764 363.3 799 382.7 833.8 387.2C868.7 391.7 903.3 381.3 938 369C972.7 356.7 1007.3 342.3 1042 363.2C1076.7 384 1111.3 440 1146.2 436.7C1181 433.3 1216 370.7 1250.8 391.2C1285.7 411.7 1320.3 515.3 1355 544.2C1389.7 573 1424.3 527 1459 491.2C1493.7 455.3 1528.3 429.7 1563 408.2C1597.7 386.7 1632.3 369.3 1667.2 385.8C1702 402.3 1737 452.7 1771.8 456.8C1806.7 461 1841.3 419 1876 394C1910.7 369 1945.3 361 1962.7 357L1980 353L1980 0L1962.7 0C1945.3 0 1910.7 0 1876 0C1841.3 0 1806.7 0 1771.8 0C1737 0 1702 0 1667.2 0C1632.3 0 1597.7 0 1563 0C1528.3 0 1493.7 0 1459 0C1424.3 0 1389.7 0 1355 0C1320.3 0 1285.7 0 1250.8 0C1216 0 1181 0 1146.2 0C1111.3 0 1076.7 0 1042 0C1007.3 0 972.7 0 938 0C903.3 0 868.7 0 833.8 0C799 0 764 0 729.2 0C694.3 0 659.7 0 625 0C590.3 0 555.7 0 521 0C486.3 0 451.7 0 417 0C382.3 0 347.7 0 312.8 0C278 0 243 0 208.2 0C173.3 0 138.7 0 104 0C69.3 0 34.7 0 17.3 0L0 0Z" fill="#b4b1d2"></path><path d="M0 409L17.3 385.3C34.7 361.7 69.3 314.3 104 332.7C138.7 351 173.3 435 208.2 441.5C243 448 278 377 312.8 340.7C347.7 304.3 382.3 302.7 417 318C451.7 333.3 486.3 365.7 521 390.5C555.7 415.3 590.3 432.7 625 438C659.7 443.3 694.3 436.7 729.2 451.8C764 467 799 504 833.8 520.8C868.7 537.7 903.3 534.3 938 502.2C972.7 470 1007.3 409 1042 379.7C1076.7 350.3 1111.3 352.7 1146.2 348.3C1181 344 1216 333 1250.8 339.5C1285.7 346 1320.3 370 1355 383.2C1389.7 396.3 1424.3 398.7 1459 427.3C1493.7 456 1528.3 511 1563 507.8C1597.7 504.7 1632.3 443.3 1667.2 391.2C1702 339 1737 296 1771.8 280.8C1806.7 265.7 1841.3 278.3 1876 289.7C1910.7 301 1945.3 311 1962.7 316L1980 321L1980 0L1962.7 0C1945.3 0 1910.7 0 1876 0C1841.3 0 1806.7 0 1771.8 0C1737 0 1702 0 1667.2 0C1632.3 0 1597.7 0 1563 0C1528.3 0 1493.7 0 1459 0C1424.3 0 1389.7 0 1355 0C1320.3 0 1285.7 0 1250.8 0C1216 0 1181 0 1146.2 0C1111.3 0 1076.7 0 1042 0C1007.3 0 972.7 0 938 0C903.3 0 868.7 0 833.8 0C799 0 764 0 729.2 0C694.3 0 659.7 0 625 0C590.3 0 555.7 0 521 0C486.3 0 451.7 0 417 0C382.3 0 347.7 0 312.8 0C278 0 243 0 208.2 0C173.3 0 138.7 0 104 0C69.3 0 34.7 0 17.3 0L0 0Z" fill="#a8a5cc"></path><path d="M0 484L17.3 482C34.7 480 69.3 476 104 467.3C138.7 458.7 173.3 445.3 208.2 428.8C243 412.3 278 392.7 312.8 380.8C347.7 369 382.3 365 417 336.2C451.7 307.3 486.3 253.7 521 250.8C555.7 248 590.3 296 625 317C659.7 338 694.3 332 729.2 355.7C764 379.3 799 432.7 833.8 452.5C868.7 472.3 903.3 458.7 938 431.2C972.7 403.7 1007.3 362.3 1042 327.5C1076.7 292.7 1111.3 264.3 1146.2 270.5C1181 276.7 1216 317.3 1250.8 312.8C1285.7 308.3 1320.3 258.7 1355 258.8C1389.7 259 1424.3 309 1459 347.8C1493.7 386.7 1528.3 414.3 1563 418.2C1597.7 422 1632.3 402 1667.2 406.3C1702 410.7 1737 439.3 1771.8 455C1806.7 470.7 1841.3 473.3 1876 446.8C1910.7 420.3 1945.3 364.7 1962.7 336.8L1980 309L1980 0L1962.7 0C1945.3 0 1910.7 0 1876 0C1841.3 0 1806.7 0 1771.8 0C1737 0 1702 0 1667.2 0C1632.3 0 1597.7 0 1563 0C1528.3 0 1493.7 0 1459 0C1424.3 0 1389.7 0 1355 0C1320.3 0 1285.7 0 1250.8 0C1216 0 1181 0 1146.2 0C1111.3 0 1076.7 0 1042 0C1007.3 0 972.7 0 938 0C903.3 0 868.7 0 833.8 0C799 0 764 0 729.2 0C694.3 0 659.7 0 625 0C590.3 0 555.7 0 521 0C486.3 0 451.7 0 417 0C382.3 0 347.7 0 312.8 0C278 0 243 0 208.2 0C173.3 0 138.7 0 104 0C69.3 0 34.7 0 17.3 0L0 0Z" fill="#9b98c5"></path><path d="M0 195L17.3 204.2C34.7 213.3 69.3 231.7 104 246.3C138.7 261 173.3 272 208.2 290C243 308 278 333 312.8 340.3C347.7 347.7 382.3 337.3 417 330C451.7 322.7 486.3 318.3 521 317.8C555.7 317.3 590.3 320.7 625 302.7C659.7 284.7 694.3 245.3 729.2 243.8C764 242.3 799 278.7 833.8 307.7C868.7 336.7 903.3 358.3 938 347.8C972.7 337.3 1007.3 294.7 1042 269.7C1076.7 244.7 1111.3 237.3 1146.2 264C1181 290.7 1216 351.3 1250.8 368.8C1285.7 386.3 1320.3 360.7 1355 351C1389.7 341.3 1424.3 347.7 1459 352.5C1493.7 357.3 1528.3 360.7 1563 363.3C1597.7 366 1632.3 368 1667.2 340.5C1702 313 1737 256 1771.8 236.5C1806.7 217 1841.3 235 1876 245.8C1910.7 256.7 1945.3 260.3 1962.7 262.2L1980 264L1980 0L1962.7 0C1945.3 0 1910.7 0 1876 0C1841.3 0 1806.7 0 1771.8 0C1737 0 1702 0 1667.2 0C1632.3 0 1597.7 0 1563 0C1528.3 0 1493.7 0 1459 0C1424.3 0 1389.7 0 1355 0C1320.3 0 1285.7 0 1250.8 0C1216 0 1181 0 1146.2 0C1111.3 0 1076.7 0 1042 0C1007.3 0 972.7 0 938 0C903.3 0 868.7 0 833.8 0C799 0 764 0 729.2 0C694.3 0 659.7 0 625 0C590.3 0 555.7 0 521 0C486.3 0 451.7 0 417 0C382.3 0 347.7 0 312.8 0C278 0 243 0 208.2 0C173.3 0 138.7 0 104 0C69.3 0 34.7 0 17.3 0L0 0Z" fill="#8f8cbf"></path><path d="M0 156L17.3 169.2C34.7 182.3 69.3 208.7 104 209.7C138.7 210.7 173.3 186.3 208.2 180C243 173.7 278 185.3 312.8 212.7C347.7 240 382.3 283 417 288.7C451.7 294.3 486.3 262.7 521 231.5C555.7 200.3 590.3 169.7 625 164.2C659.7 158.7 694.3 178.3 729.2 198.3C764 218.3 799 238.7 833.8 242.5C868.7 246.3 903.3 233.7 938 233.7C972.7 233.7 1007.3 246.3 1042 251C1076.7 255.7 1111.3 252.3 1146.2 243.5C1181 234.7 1216 220.3 1250.8 198.8C1285.7 177.3 1320.3 148.7 1355 159C1389.7 169.3 1424.3 218.7 1459 245.8C1493.7 273 1528.3 278 1563 252.2C1597.7 226.3 1632.3 169.7 1667.2 175.2C1702 180.7 1737 248.3 1771.8 254.7C1806.7 261 1841.3 206 1876 175.7C1910.7 145.3 1945.3 139.7 1962.7 136.8L1980 134L1980 0L1962.7 0C1945.3 0 1910.7 0 1876 0C1841.3 0 1806.7 0 1771.8 0C1737 0 1702 0 1667.2 0C1632.3 0 1597.7 0 1563 0C1528.3 0 1493.7 0 1459 0C1424.3 0 1389.7 0 1355 0C1320.3 0 1285.7 0 1250.8 0C1216 0 1181 0 1146.2 0C1111.3 0 1076.7 0 1042 0C1007.3 0 972.7 0 938 0C903.3 0 868.7 0 833.8 0C799 0 764 0 729.2 0C694.3 0 659.7 0 625 0C590.3 0 555.7 0 521 0C486.3 0 451.7 0 417 0C382.3 0 347.7 0 312.8 0C278 0 243 0 208.2 0C173.3 0 138.7 0 104 0C69.3 0 34.7 0 17.3 0L0 0Z" fill="#8280b9"></path><path d="M0 107L17.3 105C34.7 103 69.3 99 104 97C138.7 95 173.3 95 208.2 98.8C243 102.7 278 110.3 312.8 129.2C347.7 148 382.3 178 417 198.8C451.7 219.7 486.3 231.3 521 210C555.7 188.7 590.3 134.3 625 130C659.7 125.7 694.3 171.3 729.2 193.5C764 215.7 799 214.3 833.8 192.8C868.7 171.3 903.3 129.7 938 123.8C972.7 118 1007.3 148 1042 155C1076.7 162 1111.3 146 1146.2 130C1181 114 1216 98 1250.8 88.7C1285.7 79.3 1320.3 76.7 1355 99.5C1389.7 122.3 1424.3 170.7 1459 171.8C1493.7 173 1528.3 127 1563 121.7C1597.7 116.3 1632.3 151.7 1667.2 176.8C1702 202 1737 217 1771.8 195C1806.7 173 1841.3 114 1876 83.8C1910.7 53.7 1945.3 52.3 1962.7 51.7L1980 51L1980 0L1962.7 0C1945.3 0 1910.7 0 1876 0C1841.3 0 1806.7 0 1771.8 0C1737 0 1702 0 1667.2 0C1632.3 0 1597.7 0 1563 0C1528.3 0 1493.7 0 1459 0C1424.3 0 1389.7 0 1355 0C1320.3 0 1285.7 0 1250.8 0C1216 0 1181 0 1146.2 0C1111.3 0 1076.7 0 1042 0C1007.3 0 972.7 0 938 0C903.3 0 868.7 0 833.8 0C799 0 764 0 729.2 0C694.3 0 659.7 0 625 0C590.3 0 555.7 0 521 0C486.3 0 451.7 0 417 0C382.3 0 347.7 0 312.8 0C278 0 243 0 208.2 0C173.3 0 138.7 0 104 0C69.3 0 34.7 0 17.3 0L0 0Z" fill="#7575b2"></path><path d="M0 2L17.3 19.3C34.7 36.7 69.3 71.3 104 91.5C138.7 111.7 173.3 117.3 208.2 115.7C243 114 278 105 312.8 85.2C347.7 65.3 382.3 34.7 417 27.5C451.7 20.3 486.3 36.7 521 39.2C555.7 41.7 590.3 30.3 625 35.3C659.7 40.3 694.3 61.7 729.2 69.3C764 77 799 71 833.8 59.7C868.7 48.3 903.3 31.7 938 46.5C972.7 61.3 1007.3 107.7 1042 129.5C1076.7 151.3 1111.3 148.7 1146.2 132.5C1181 116.3 1216 86.7 1250.8 75C1285.7 63.3 1320.3 69.7 1355 80.7C1389.7 91.7 1424.3 107.3 1459 104.3C1493.7 101.3 1528.3 79.7 1563 61.8C1597.7 44 1632.3 30 1667.2 23C1702 16 1737 16 1771.8 21C1806.7 26 1841.3 36 1876 49.2C1910.7 62.3 1945.3 78.7 1962.7 86.8L1980 95L1980 0L1962.7 0C1945.3 0 1910.7 0 1876 0C1841.3 0 1806.7 0 1771.8 0C1737 0 1702 0 1667.2 0C1632.3 0 1597.7 0 1563 0C1528.3 0 1493.7 0 1459 0C1424.3 0 1389.7 0 1355 0C1320.3 0 1285.7 0 1250.8 0C1216 0 1181 0 1146.2 0C1111.3 0 1076.7 0 1042 0C1007.3 0 972.7 0 938 0C903.3 0 868.7 0 833.8 0C799 0 764 0 729.2 0C694.3 0 659.7 0 625 0C590.3 0 555.7 0 521 0C486.3 0 451.7 0 417 0C382.3 0 347.7 0 312.8 0C278 0 243 0 208.2 0C173.3 0 138.7 0 104 0C69.3 0 34.7 0 17.3 0L0 0Z" fill="#6869ac"></path></svg>