<svg id="visual" viewBox="0 0 1920 1080" width="1920" height="1080" xmlns="http://www.w3.org/2000/svg" xmlns:xlink="http://www.w3.org/1999/xlink" version="1.1"><rect x="0" y="0" width="1920" height="1080" fill="#f2f2f2"></rect><path d="M0 807L22.8 806.8C45.7 806.7 91.3 806.3 137 818.7C182.7 831 228.3 856 274 871.8C319.7 887.7 365.3 894.3 411.2 900.8C457 907.3 503 913.7 548.8 897.3C594.7 881 640.3 842 686 829.7C731.7 817.3 777.3 831.7 823 850.2C868.7 868.7 914.3 891.3 960 889.3C1005.7 887.3 1051.3 860.7 1097 853.5C1142.7 846.3 1188.3 858.7 1234 876.2C1279.7 893.7 1325.3 916.3 1371.2 908.5C1417 900.7 1463 862.3 1508.8 859.2C1554.7 856 1600.3 888 1646 898.3C1691.7 908.7 1737.3 897.3 1783 900.3C1828.7 903.3 1874.3 920.7 1897.2 929.3L1920 938L1920 0L1897.2 0C1874.3 0 1828.7 0 1783 0C1737.3 0 1691.7 0 1646 0C1600.3 0 1554.7 0 1508.8 0C1463 0 1417 0 1371.2 0C1325.3 0 1279.7 0 1234 0C1188.3 0 1142.7 0 1097 0C1051.3 0 1005.7 0 960 0C914.3 0 868.7 0 823 0C777.3 0 731.7 0 686 0C640.3 0 594.7 0 548.8 0C503 0 457 0 411.2 0C365.3 0 319.7 0 274 0C228.3 0 182.7 0 137 0C91.3 0 45.7 0 22.8 0L0 0Z" fill="#f2f2f2"></path><path d="M0 830L22.8 813.3C45.7 796.7 91.3 763.3 137 755.2C182.7 747 228.3 764 274 768.2C319.7 772.3 365.3 763.7 411.2 762.8C457 762 503 769 548.8 771.7C594.7 774.3 640.3 772.7 686 761.2C731.7 749.7 777.3 728.3 823 724.5C868.7 720.7 914.3 734.3 960 744.2C1005.7 754 1051.3 760 1097 773.2C1142.7 786.3 1188.3 806.7 1234 812.2C1279.7 817.7 1325.3 808.3 1371.2 810.5C1417 812.7 1463 826.3 1508.8 815.5C1554.7 804.7 1600.3 769.3 1646 758.8C1691.7 748.3 1737.3 762.7 1783 772.7C1828.7 782.7 1874.3 788.3 1897.2 791.2L1920 794L1920 0L1897.2 0C1874.3 0 1828.7 0 1783 0C1737.3 0 1691.7 0 1646 0C1600.3 0 1554.7 0 1508.8 0C1463 0 1417 0 1371.2 0C1325.3 0 1279.7 0 1234 0C1188.3 0 1142.7 0 1097 0C1051.3 0 1005.7 0 960 0C914.3 0 868.7 0 823 0C777.3 0 731.7 0 686 0C640.3 0 594.7 0 548.8 0C503 0 457 0 411.2 0C365.3 0 319.7 0 274 0C228.3 0 182.7 0 137 0C91.3 0 45.7 0 22.8 0L0 0Z" fill="#e1e0e9"></path><path d="M0 615L22.8 615C45.7 615 91.3 615 137 638.5C182.7 662 228.3 709 274 715.5C319.7 722 365.3 688 411.2 665.3C457 642.7 503 631.3 548.8 646.8C594.7 662.3 640.3 704.7 686 721.5C731.7 738.3 777.3 729.7 823 710.7C868.7 691.7 914.3 662.3 960 648.8C1005.7 635.3 1051.3 637.7 1097 638.3C1142.7 639 1188.3 638 1234 634.5C1279.7 631 1325.3 625 1371.2 622C1417 619 1463 619 1508.8 620.7C1554.7 622.3 1600.3 625.7 1646 639.5C1691.7 653.3 1737.3 677.7 1783 682.5C1828.7 687.3 1874.3 672.7 1897.2 665.3L1920 658L1920 0L1897.2 0C1874.3 0 1828.7 0 1783 0C1737.3 0 1691.7 0 1646 0C1600.3 0 1554.7 0 1508.8 0C1463 0 1417 0 1371.2 0C1325.3 0 1279.7 0 1234 0C1188.3 0 1142.7 0 1097 0C1051.3 0 1005.7 0 960 0C914.3 0 868.7 0 823 0C777.3 0 731.7 0 686 0C640.3 0 594.7 0 548.8 0C503 0 457 0 411.2 0C365.3 0 319.7 0 274 0C228.3 0 182.7 0 137 0C91.3 0 45.7 0 22.8 0L0 0Z" fill="#d0cee1"></path><path d="M0 517L22.8 515.7C45.7 514.3 91.3 511.7 137 511.5C182.7 511.3 228.3 513.7 274 520.5C319.7 527.3 365.3 538.7 411.2 537.7C457 536.7 503 523.3 548.8 519.2C594.7 515 640.3 520 686 536.8C731.7 553.7 777.3 582.3 823 584.2C868.7 586 914.3 561 960 555.7C1005.7 550.3 1051.3 564.7 1097 560.2C1142.7 555.7 1188.3 532.3 1234 542.3C1279.7 552.3 1325.3 595.7 1371.2 597C1417 598.3 1463 557.7 1508.8 554.7C1554.7 551.7 1600.3 586.3 1646 598.5C1691.7 610.7 1737.3 600.3 1783 593C1828.7 585.7 1874.3 581.3 1897.2 579.2L1920 577L1920 0L1897.2 0C1874.3 0 1828.7 0 1783 0C1737.3 0 1691.7 0 1646 0C1600.3 0 1554.7 0 1508.8 0C1463 0 1417 0 1371.2 0C1325.3 0 1279.7 0 1234 0C1188.3 0 1142.7 0 1097 0C1051.3 0 1005.7 0 960 0C914.3 0 868.7 0 823 0C777.3 0 731.7 0 686 0C640.3 0 594.7 0 548.8 0C503 0 457 0 411.2 0C365.3 0 319.7 0 274 0C228.3 0 182.7 0 137 0C91.3 0 45.7 0 22.8 0L0 0Z" fill="#bfbcd8"></path><path d="M0 548L22.8 544.2C45.7 540.3 91.3 532.7 137 520.5C182.7 508.3 228.3 491.7 274 491C319.7 490.3 365.3 505.7 411.2 512.2C457 518.7 503 516.3 548.8 519.3C594.7 522.3 640.3 530.7 686 528C731.7 525.3 777.3 511.7 823 498.2C868.7 484.7 914.3 471.3 960 458.5C1005.7 445.7 1051.3 433.3 1097 432.2C1142.7 431 1188.3 441 1234 448.7C1279.7 456.3 1325.3 461.7 1371.2 459.5C1417 457.3 1463 447.7 1508.8 444.2C1554.7 440.7 1600.3 443.3 1646 452.8C1691.7 462.3 1737.3 478.7 1783 485.5C1828.7 492.3 1874.3 489.7 1897.2 488.3L1920 487L1920 0L1897.2 0C1874.3 0 1828.7 0 1783 0C1737.3 0 1691.7 0 1646 0C1600.3 0 1554.7 0 1508.8 0C1463 0 1417 0 1371.2 0C1325.3 0 1279.7 0 1234 0C1188.3 0 1142.7 0 1097 0C1051.3 0 1005.7 0 960 0C914.3 0 868.7 0 823 0C777.3 0 731.7 0 686 0C640.3 0 594.7 0 548.8 0C503 0 457 0 411.2 0C365.3 0 319.7 0 274 0C228.3 0 182.7 0 137 0C91.3 0 45.7 0 22.8 0L0 0Z" fill="#aeabcf"></path><path d="M0 396L22.8 386.3C45.7 376.7 91.3 357.3 137 365.2C182.7 373 228.3 408 274 426.2C319.7 444.3 365.3 445.7 411.2 444C457 442.3 503 437.7 548.8 431.5C594.7 425.3 640.3 417.7 686 409.5C731.7 401.3 777.3 392.7 823 389.8C868.7 387 914.3 390 960 383.5C1005.7 377 1051.3 361 1097 369C1142.7 377 1188.3 409 1234 421.5C1279.7 434 1325.3 427 1371.2 416.5C1417 406 1463 392 1508.8 378C1554.7 364 1600.3 350 1646 350.3C1691.7 350.7 1737.3 365.3 1783 366.2C1828.7 367 1874.3 354 1897.2 347.5L1920 341L1920 0L1897.2 0C1874.3 0 1828.7 0 1783 0C1737.3 0 1691.7 0 1646 0C1600.3 0 1554.7 0 1508.8 0C1463 0 1417 0 1371.2 0C1325.3 0 1279.7 0 1234 0C1188.3 0 1142.7 0 1097 0C1051.3 0 1005.7 0 960 0C914.3 0 868.7 0 823 0C777.3 0 731.7 0 686 0C640.3 0 594.7 0 548.8 0C503 0 457 0 411.2 0C365.3 0 319.7 0 274 0C228.3 0 182.7 0 137 0C91.3 0 45.7 0 22.8 0L0 0Z" fill="#9d9ac6"></path><path d="M0 217L22.8 221.8C45.7 226.7 91.3 236.3 137 252.3C182.7 268.3 228.3 290.7 274 295.8C319.7 301 365.3 289 411.2 273.5C457 258 503 239 548.8 252C594.7 265 640.3 310 686 314C731.7 318 777.3 281 823 264.8C868.7 248.7 914.3 253.3 960 248.5C1005.7 243.7 1051.3 229.3 1097 236.7C1142.7 244 1188.3 273 1234 285.7C1279.7 298.3 1325.3 294.7 1371.2 302.5C1417 310.3 1463 329.7 1508.8 340.8C1554.7 352 1600.3 355 1646 333.3C1691.7 311.7 1737.3 265.3 1783 264.8C1828.7 264.3 1874.3 309.7 1897.2 332.3L1920 355L1920 0L1897.2 0C1874.3 0 1828.7 0 1783 0C1737.3 0 1691.7 0 1646 0C1600.3 0 1554.7 0 1508.8 0C1463 0 1417 0 1371.2 0C1325.3 0 1279.7 0 1234 0C1188.3 0 1142.7 0 1097 0C1051.3 0 1005.7 0 960 0C914.3 0 868.7 0 823 0C777.3 0 731.7 0 686 0C640.3 0 594.7 0 548.8 0C503 0 457 0 411.2 0C365.3 0 319.7 0 274 0C228.3 0 182.7 0 137 0C91.3 0 45.7 0 22.8 0L0 0Z" fill="#8c89be"></path><path d="M0 231L22.8 233.8C45.7 236.7 91.3 242.3 137 238C182.7 233.7 228.3 219.3 274 218.5C319.7 217.7 365.3 230.3 411.2 232.2C457 234 503 225 548.8 204.5C594.7 184 640.3 152 686 152.2C731.7 152.3 777.3 184.7 823 203.8C868.7 223 914.3 229 960 226.2C1005.7 223.3 1051.3 211.7 1097 213.2C1142.7 214.7 1188.3 229.3 1234 215.5C1279.7 201.7 1325.3 159.3 1371.2 160.8C1417 162.3 1463 207.7 1508.8 212.5C1554.7 217.3 1600.3 181.7 1646 184.5C1691.7 187.3 1737.3 228.7 1783 237.2C1828.7 245.7 1874.3 221.3 1897.2 209.2L1920 197L1920 0L1897.2 0C1874.3 0 1828.7 0 1783 0C1737.3 0 1691.7 0 1646 0C1600.3 0 1554.7 0 1508.8 0C1463 0 1417 0 1371.2 0C1325.3 0 1279.7 0 1234 0C1188.3 0 1142.7 0 1097 0C1051.3 0 1005.7 0 960 0C914.3 0 868.7 0 823 0C777.3 0 731.7 0 686 0C640.3 0 594.7 0 548.8 0C503 0 457 0 411.2 0C365.3 0 319.7 0 274 0C228.3 0 182.7 0 137 0C91.3 0 45.7 0 22.8 0L0 0Z" fill="#7a79b5"></path><path d="M0 25L22.8 47.2C45.7 69.3 91.3 113.7 137 137C182.7 160.3 228.3 162.7 274 151.3C319.7 140 365.3 115 411.2 110.3C457 105.7 503 121.3 548.8 133.7C594.7 146 640.3 155 686 136.5C731.7 118 777.3 72 823 66.5C868.7 61 914.3 96 960 98.2C1005.7 100.3 1051.3 69.7 1097 66C1142.7 62.3 1188.3 85.7 1234 83.3C1279.7 81 1325.3 53 1371.2 38.5C1417 24 1463 23 1508.8 38.2C1554.7 53.3 1600.3 84.7 1646 97.5C1691.7 110.3 1737.3 104.7 1783 89.7C1828.7 74.7 1874.3 50.3 1897.2 38.2L1920 26L1920 0L1897.2 0C1874.3 0 1828.7 0 1783 0C1737.3 0 1691.7 0 1646 0C1600.3 0 1554.7 0 1508.8 0C1463 0 1417 0 1371.2 0C1325.3 0 1279.7 0 1234 0C1188.3 0 1142.7 0 1097 0C1051.3 0 1005.7 0 960 0C914.3 0 868.7 0 823 0C777.3 0 731.7 0 686 0C640.3 0 594.7 0 548.8 0C503 0 457 0 411.2 0C365.3 0 319.7 0 274 0C228.3 0 182.7 0 137 0C91.3 0 45.7 0 22.8 0L0 0Z" fill="#6869ac"></path></svg>