<svg id="visual" viewBox="0 0 1920 300" width="1920" height="300" xmlns="http://www.w3.org/2000/svg" xmlns:xlink="http://www.w3.org/1999/xlink" version="1.1"><rect x="0" y="0" width="1920" height="300" fill="#f2f2f2"></rect><path d="M0 138L15.2 131.3C30.3 124.7 60.7 111.3 91.2 113.7C121.7 116 152.3 134 182.8 136.5C213.3 139 243.7 126 274.2 138.8C304.7 151.7 335.3 190.3 365.8 185.5C396.3 180.7 426.7 132.3 457.2 110.5C487.7 88.7 518.3 93.3 548.8 98.7C579.3 104 609.7 110 640 106.7C670.3 103.3 700.7 90.7 731.2 87.5C761.7 84.3 792.3 90.7 822.8 111C853.3 131.3 883.7 165.7 914.2 172.5C944.7 179.3 975.3 158.7 1005.8 159.2C1036.3 159.7 1066.7 181.3 1097.2 168.3C1127.7 155.3 1158.3 107.7 1188.8 92C1219.3 76.3 1249.7 92.7 1280 94.5C1310.3 96.3 1340.7 83.7 1371.2 89C1401.7 94.3 1432.3 117.7 1462.8 144.5C1493.3 171.3 1523.7 201.7 1554.2 216C1584.7 230.3 1615.3 228.7 1645.8 216.3C1676.3 204 1706.7 181 1737.2 154.7C1767.7 128.3 1798.3 98.7 1828.8 82.8C1859.3 67 1889.7 65 1904.8 64L1920 63L1920 301L1904.8 301C1889.7 301 1859.3 301 1828.8 301C1798.3 301 1767.7 301 1737.2 301C1706.7 301 1676.3 301 1645.8 301C1615.3 301 1584.7 301 1554.2 301C1523.7 301 1493.3 301 1462.8 301C1432.3 301 1401.7 301 1371.2 301C1340.7 301 1310.3 301 1280 301C1249.7 301 1219.3 301 1188.8 301C1158.3 301 1127.7 301 1097.2 301C1066.7 301 1036.3 301 1005.8 301C975.3 301 944.7 301 914.2 301C883.7 301 853.3 301 822.8 301C792.3 301 761.7 301 731.2 301C700.7 301 670.3 301 640 301C609.7 301 579.3 301 548.8 301C518.3 301 487.7 301 457.2 301C426.7 301 396.3 301 365.8 301C335.3 301 304.7 301 274.2 301C243.7 301 213.3 301 182.8 301C152.3 301 121.7 301 91.2 301C60.7 301 30.3 301 15.2 301L0 301Z" fill="#6869ac" stroke-linecap="round" stroke-linejoin="miter"></path></svg>