<svg id="visual" viewBox="0 0 900 675" width="900" height="675" xmlns="http://www.w3.org/2000/svg" xmlns:xlink="http://www.w3.org/1999/xlink" version="1.1"><rect x="0" y="0" width="900" height="675" fill="#f2f2f2"></rect><path d="M0 455L21.5 438C43 421 86 387 128.8 378.7C171.7 370.3 214.3 387.7 257.2 386.3C300 385 343 365 385.8 368.7C428.7 372.3 471.3 399.7 514.2 398.8C557 398 600 369 642.8 375.2C685.7 381.3 728.3 422.7 771.2 427.2C814 431.7 857 399.3 878.5 383.2L900 367L900 0L878.5 0C857 0 814 0 771.2 0C728.3 0 685.7 0 642.8 0C600 0 557 0 514.2 0C471.3 0 428.7 0 385.8 0C343 0 300 0 257.2 0C214.3 0 171.7 0 128.8 0C86 0 43 0 21.5 0L0 0Z" fill="#f2f2f2"></path><path d="M0 434L21.5 418C43 402 86 370 128.8 359C171.7 348 214.3 358 257.2 346.5C300 335 343 302 385.8 309.3C428.7 316.7 471.3 364.3 514.2 370.3C557 376.3 600 340.7 642.8 340C685.7 339.3 728.3 373.7 771.2 389.3C814 405 857 402 878.5 400.5L900 399L900 0L878.5 0C857 0 814 0 771.2 0C728.3 0 685.7 0 642.8 0C600 0 557 0 514.2 0C471.3 0 428.7 0 385.8 0C343 0 300 0 257.2 0C214.3 0 171.7 0 128.8 0C86 0 43 0 21.5 0L0 0Z" fill="#d0cee1"></path><path d="M0 277L21.5 284C43 291 86 305 128.8 315.3C171.7 325.7 214.3 332.3 257.2 334.5C300 336.7 343 334.3 385.8 318.5C428.7 302.7 471.3 273.3 514.2 263.3C557 253.3 600 262.7 642.8 275C685.7 287.3 728.3 302.7 771.2 317C814 331.3 857 344.7 878.5 351.3L900 358L900 0L878.5 0C857 0 814 0 771.2 0C728.3 0 685.7 0 642.8 0C600 0 557 0 514.2 0C471.3 0 428.7 0 385.8 0C343 0 300 0 257.2 0C214.3 0 171.7 0 128.8 0C86 0 43 0 21.5 0L0 0Z" fill="#aeabcf"></path><path d="M0 144L21.5 149.8C43 155.7 86 167.3 128.8 170.7C171.7 174 214.3 169 257.2 162.8C300 156.7 343 149.3 385.8 149.8C428.7 150.3 471.3 158.7 514.2 169.3C557 180 600 193 642.8 198C685.7 203 728.3 200 771.2 196.2C814 192.3 857 187.7 878.5 185.3L900 183L900 0L878.5 0C857 0 814 0 771.2 0C728.3 0 685.7 0 642.8 0C600 0 557 0 514.2 0C471.3 0 428.7 0 385.8 0C343 0 300 0 257.2 0C214.3 0 171.7 0 128.8 0C86 0 43 0 21.5 0L0 0Z" fill="#8c89be"></path><path d="M0 144L21.5 141.7C43 139.3 86 134.7 128.8 125.3C171.7 116 214.3 102 257.2 99.2C300 96.3 343 104.7 385.8 106C428.7 107.3 471.3 101.7 514.2 102.8C557 104 600 112 642.8 115.8C685.7 119.7 728.3 119.3 771.2 111.3C814 103.3 857 87.7 878.5 79.8L900 72L900 0L878.5 0C857 0 814 0 771.2 0C728.3 0 685.7 0 642.8 0C600 0 557 0 514.2 0C471.3 0 428.7 0 385.8 0C343 0 300 0 257.2 0C214.3 0 171.7 0 128.8 0C86 0 43 0 21.5 0L0 0Z" fill="#6869ac"></path></svg>