<svg id="visual" viewBox="0 0 1920 1080" width="1920" height="1080" xmlns="http://www.w3.org/2000/svg" xmlns:xlink="http://www.w3.org/1999/xlink" version="1.1"><rect x="0" y="0" width="1920" height="1080" fill="#f2f2f2"></rect><path d="M0 729L45.7 701.7C91.3 674.3 182.7 619.7 274.2 606.2C365.7 592.7 457.3 620.3 548.8 618.2C640.3 616 731.7 584 823 589.8C914.3 595.7 1005.7 639.3 1097 638.2C1188.3 637 1279.7 591 1371.2 601C1462.7 611 1554.3 677 1645.8 684.2C1737.3 691.3 1828.7 639.7 1874.3 613.8L1920 588L1920 0L1874.3 0C1828.7 0 1737.3 0 1645.8 0C1554.3 0 1462.7 0 1371.2 0C1279.7 0 1188.3 0 1097 0C1005.7 0 914.3 0 823 0C731.7 0 640.3 0 548.8 0C457.3 0 365.7 0 274.2 0C182.7 0 91.3 0 45.7 0L0 0Z" fill="#f2f2f2"></path><path d="M0 695L45.7 669.3C91.3 643.7 182.7 592.3 274.2 574.7C365.7 557 457.3 573 548.8 554.7C640.3 536.3 731.7 483.7 823 495.5C914.3 507.3 1005.7 583.7 1097 593.3C1188.3 603 1279.7 546 1371.2 544.8C1462.7 543.7 1554.3 598.3 1645.8 623.3C1737.3 648.3 1828.7 643.7 1874.3 641.3L1920 639L1920 0L1874.3 0C1828.7 0 1737.3 0 1645.8 0C1554.3 0 1462.7 0 1371.2 0C1279.7 0 1188.3 0 1097 0C1005.7 0 914.3 0 823 0C731.7 0 640.3 0 548.8 0C457.3 0 365.7 0 274.2 0C182.7 0 91.3 0 45.7 0L0 0Z" fill="#d0cee1"></path><path d="M0 444L45.7 455.2C91.3 466.3 182.7 488.7 274.2 505.2C365.7 521.7 457.3 532.3 548.8 535.7C640.3 539 731.7 535 823 509.7C914.3 484.3 1005.7 437.7 1097 421.8C1188.3 406 1279.7 421 1371.2 440.8C1462.7 460.7 1554.3 485.3 1645.8 508.3C1737.3 531.3 1828.7 552.7 1874.3 563.3L1920 574L1920 0L1874.3 0C1828.7 0 1737.3 0 1645.8 0C1554.3 0 1462.7 0 1371.2 0C1279.7 0 1188.3 0 1097 0C1005.7 0 914.3 0 823 0C731.7 0 640.3 0 548.8 0C457.3 0 365.7 0 274.2 0C182.7 0 91.3 0 45.7 0L0 0Z" fill="#aeabcf"></path><path d="M0 231L45.7 240.2C91.3 249.3 182.7 267.7 274.2 272.8C365.7 278 457.3 270 548.8 260.3C640.3 250.7 731.7 239.3 823 240.3C914.3 241.3 1005.7 254.7 1097 271.5C1188.3 288.3 1279.7 308.7 1371.2 316.7C1462.7 324.7 1554.3 320.3 1645.8 314.5C1737.3 308.7 1828.7 301.3 1874.3 297.7L1920 294L1920 0L1874.3 0C1828.7 0 1737.3 0 1645.8 0C1554.3 0 1462.7 0 1371.2 0C1279.7 0 1188.3 0 1097 0C1005.7 0 914.3 0 823 0C731.7 0 640.3 0 548.8 0C457.3 0 365.7 0 274.2 0C182.7 0 91.3 0 45.7 0L0 0Z" fill="#8c89be"></path><path d="M0 231L45.7 227.3C91.3 223.7 182.7 216.3 274.2 201.3C365.7 186.3 457.3 163.7 548.8 159C640.3 154.3 731.7 167.7 823 169.8C914.3 172 1005.7 163 1097 165C1188.3 167 1279.7 180 1371.2 186.2C1462.7 192.3 1554.3 191.7 1645.8 178.7C1737.3 165.7 1828.7 140.3 1874.3 127.7L1920 115L1920 0L1874.3 0C1828.7 0 1737.3 0 1645.8 0C1554.3 0 1462.7 0 1371.2 0C1279.7 0 1188.3 0 1097 0C1005.7 0 914.3 0 823 0C731.7 0 640.3 0 548.8 0C457.3 0 365.7 0 274.2 0C182.7 0 91.3 0 45.7 0L0 0Z" fill="#6869ac"></path></svg>